HIERARCHY
ROOT hip
{
  OFFSET 0.0 0.0 0.0
  CHANNELS 6 Xposition Yposition Zposition Zrotation Yrotation Xrotation
  JOINT abdomen
  {
    OFFSET 0.0 20.6881 -0.73152
    CHANNELS 3 Zrotation Xrotation Yrotation
    JOINT chest
    {
      OFFSET 0.0 11.7043 -0.48768
      CHANNELS 3 Zrotation Xrotation Yrotation
      JOINT neck
      {
        OFFSET 0.0 22.1894 -2.19456
        CHANNELS 3 Zrotation Xrotation Yrotation
        JOINT head
        {
          OFFSET -0.24384 7.07133 1.2192
          CHANNELS 3 Zrotation Xrotation Yrotation
          JOINT leftEye
          {
            OFFSET 4.14528 8.04674 8.04672
            CHANNELS 3 Zrotation Xrotation Yrotation
            End Site
            {
              OFFSET 1.0 0.0 0.0
            }
          }
          JOINT rightEye
          {
            OFFSET -3.6576 8.04674 8.04672
            CHANNELS 3 Zrotation Xrotation Yrotation
            End Site
            {
              OFFSET 1.0 0.0 0.0
            }
          }
        }
      }
      JOINT rCollar
      {
        OFFSET -2.68224 19.2634 -4.8768
        CHANNELS 3 Zrotation Xrotation Yrotation
        JOINT rShldr
        {
          OFFSET -8.77824 -1.95073 1.46304
          CHANNELS 3 Zrotation Xrotation Yrotation
          JOINT rForeArm
          {
            OFFSET -28.1742 -1.7115 0.48768
            CHANNELS 3 Zrotation Xrotation Yrotation
            JOINT rHand
            {
              OFFSET -22.5879 0.773209 7.07136
              CHANNELS 3 Zrotation Xrotation Yrotation
              JOINT rThumb1
              {
                OFFSET -1.2192 -0.487915 3.41376
                CHANNELS 3 Zrotation Xrotation Yrotation
                JOINT rThumb2
                {
                  OFFSET -3.37035 -0.52449 3.41376
                  CHANNELS 3 Zrotation Xrotation Yrotation
                  End Site
                  {
                    OFFSET -1.78271 -1.18214 1.43049
                  }
                }
              }
              JOINT rIndex1
              {
                OFFSET -7.75947 0.938293 5.60832
                CHANNELS 3 Zrotation Xrotation Yrotation
                JOINT rIndex2
                {
                  OFFSET -2.54057 -0.884171 1.56538
                  CHANNELS 3 Zrotation Xrotation Yrotation
                  End Site
                  {
                    OFFSET -1.62519 -0.234802 1.16502
                  }
                }
              }
              JOINT rMid1
              {
                OFFSET -8.24714 1.18213 3.41376
                CHANNELS 3 Zrotation Xrotation Yrotation
                JOINT rMid2
                {
                  OFFSET -3.10165 -0.590103 1.0647
                  CHANNELS 3 Zrotation Xrotation Yrotation
                  End Site
                  {
                    OFFSET -2.48547 -0.328903 0.83742
                  }
                }
              }
              JOINT rRing1
              {
                OFFSET -8.82822 0.546677 1.51678
                CHANNELS 3 Zrotation Xrotation Yrotation
                JOINT rRing2
                {
                  OFFSET -2.60934 -0.819778 -0.0198488
                  CHANNELS 3 Zrotation Xrotation Yrotation
                  End Site
                  {
                    OFFSET -2.33842 -0.294052 0.168128
                  }
                }
              }
              JOINT rPinky1
              {
                OFFSET -8.27202 -0.0477905 -0.4584
                CHANNELS 3 Zrotation Xrotation Yrotation
                JOINT rPinky2
                {
                  OFFSET -1.82734 -0.647385 -0.700984
                  CHANNELS 3 Zrotation Xrotation Yrotation
                  End Site
                  {
                    OFFSET -1.69225 -0.51767 -0.607171
                  }
                }
              }
            }
          }
        }
      }
      JOINT lCollar
      {
        OFFSET 2.68224 19.2634 -4.8768
        CHANNELS 3 Zrotation Xrotation Yrotation
        JOINT lShldr
        {
          OFFSET 8.77824 -1.95073 1.46304
          CHANNELS 3 Zrotation Xrotation Yrotation
          JOINT lForeArm
          {
            OFFSET 28.1742 -1.7115 0.48768
            CHANNELS 3 Zrotation Xrotation Yrotation
            JOINT lHand
            {
              OFFSET 22.5879 0.773209 7.07136
              CHANNELS 3 Zrotation Xrotation Yrotation
              JOINT lThumb1
              {
                OFFSET 1.2192 -0.487915 3.41376
                CHANNELS 3 Zrotation Xrotation Yrotation
                JOINT lThumb2
                {
                  OFFSET 3.37035 -0.52449 3.41376
                  CHANNELS 3 Zrotation Xrotation Yrotation
                  End Site
                  {
                    OFFSET 1.78271 -1.18214 1.43049
                  }
                }
              }
              JOINT lIndex1
              {
                OFFSET 7.75947 0.938293 5.60832
                CHANNELS 3 Zrotation Xrotation Yrotation
                JOINT lIndex2
                {
                  OFFSET 2.54057 -0.884171 1.56538
                  CHANNELS 3 Zrotation Xrotation Yrotation
                  End Site
                  {
                    OFFSET 1.62519 -0.234802 1.16502
                  }
                }
              }
              JOINT lMid1
              {
                OFFSET 8.24714 1.18213 3.41376
                CHANNELS 3 Zrotation Xrotation Yrotation
                JOINT lMid2
                {
                  OFFSET 3.10165 -0.590103 1.0647
                  CHANNELS 3 Zrotation Xrotation Yrotation
                  End Site
                  {
                    OFFSET 2.48547 -0.328903 0.83742
                  }
                }
              }
              JOINT lRing1
              {
                OFFSET 8.82822 0.546677 1.51678
                CHANNELS 3 Zrotation Xrotation Yrotation
                JOINT lRing2
                {
                  OFFSET 2.60934 -0.819778 -0.0198488
                  CHANNELS 3 Zrotation Xrotation Yrotation
                  End Site
                  {
                    OFFSET 2.33842 -0.294052 0.168128
                  }
                }
              }
              JOINT lPinky1
              {
                OFFSET 8.27202 -0.0477905 -0.4584
                CHANNELS 3 Zrotation Xrotation Yrotation
                JOINT lPinky2
                {
                  OFFSET 1.82734 -0.647385 -0.700984
                  CHANNELS 3 Zrotation Xrotation Yrotation
                  End Site
                  {
                    OFFSET 1.69225 -0.51767 -0.607171
                  }
                }
              }
            }
          }
        }
      }
    }
  }
  JOINT rButtock
  {
    OFFSET -8.77824 4.35084 1.2192
    CHANNELS 3 Zrotation Xrotation Yrotation
    JOINT rThigh
    {
      OFFSET 0.0 -1.70687 -2.19456
      CHANNELS 3 Zrotation Xrotation Yrotation
      JOINT rShin
      {
        OFFSET 0.0 -36.8199 0.73152
        CHANNELS 3 Zrotation Xrotation Yrotation
        JOINT rFoot
        {
          OFFSET 0.73152 -45.1104 -5.12064
          CHANNELS 3 Zrotation Xrotation Yrotation
          End Site
          {
            OFFSET -1.1221 -3.69964 12.103
          }
        }
      }
    }
  }
  JOINT lButtock
  {
    OFFSET 8.77824 4.35084 1.2192
    CHANNELS 3 Zrotation Xrotation Yrotation
    JOINT lThigh
    {
      OFFSET 0.0 -1.70687 -2.19456
      CHANNELS 3 Zrotation Xrotation Yrotation
      JOINT lShin
      {
        OFFSET 0.0 -36.8199 0.73152
        CHANNELS 3 Zrotation Xrotation Yrotation
        JOINT lFoot
        {
          OFFSET -0.73152 -45.1104 -5.12064
          CHANNELS 3 Zrotation Xrotation Yrotation
          End Site
          {
            OFFSET 1.1221 -3.69964 12.103
          }
        }
      }
    }
  }
}
MOTION
Frames: 8
Frame Time: 0.00833333
-41.272 84.6599 69.6305 -4.2746 61.1347 -12.3058 -2.3776 11.4251 -3.91179 -1.43241 -2.63209 -1.26043 0.67942 15.5055 -1.64044 3.06067 -23.4149 -2.51827 -0.0 0.0 0.0 -0.0 0.0 0.0 -6.84036e-14 1.2412e-13 4.45961e-14 84.1563 19.1791 1.34066 -8.9094 -3.50453 15.7716 -0.264644 14.4914 2.08164 4.22239e-10 3.44812e-10 8.62273e-10 7.40366e-10 6.05866e-10 1.48437e-09 4.22247e-10 3.4482e-10 8.62264e-10 7.73091 5.47488 0.417314 4.22238e-10 3.4481e-10 8.62282e-10 2.90554 0.965183 0.102902 4.22244e-10 3.44813e-10 8.62279e-10 10.2786 0.731801 0.0259123 4.22236e-10 3.44811e-10 8.62292e-10 2.22167 -0.733487 -0.20892 -6.84579e-14 1.24111e-13 4.44594e-14 -81.173 7.52049 -2.86374 5.73182 -1.92423 -10.0065 0.0456531 -6.08179 0.858004 5.14268e-10 -2.70624e-10 -1.06905e-09 8.92298e-10 -4.69213e-10 -1.84561e-09 5.14269e-10 -2.70619e-10 -1.06904e-09 -7.73091 5.47488 -0.417314 5.14268e-10 -2.7062e-10 -1.06905e-09 -2.90554 0.965183 -0.102902 5.14261e-10 -2.70619e-10 -1.06905e-09 -10.2786 0.731801 -0.0259123 5.1427e-10 -2.70617e-10 -1.06906e-09 -2.22167 -0.733487 0.20892 -2.03217e-16 0.0 -3.88251e-19 -0.957915 -17.3383 11.4902 -0.15593 22.352 0.336857 0.30368 9.69032 -9.17019 2.03217e-16 0.0 3.88251e-19 -1.77151 -8.11518 5.96889 0.181416 37.4544 -0.921862 0.469982 -4.70899 -1.24885
-40.7299 84.6159 70.2512 -4.8188 61.3993 -12.7442 -2.07017 11.4004 -3.98718 -1.4401 -2.62441 -1.27426 0.646833 15.5156 -1.69023 3.06097 -23.4202 -2.61525 -0.0 0.0 0.0 -0.0 0.0 0.0 -1.29137e-13 3.93498e-13 -1.10634e-13 84.0824 19.4172 1.44736 -8.98315 -3.54599 15.908 -0.255108 14.2346 2.04316 2.73663e-09 1.41677e-09 4.71414e-10 4.73375e-09 2.48949e-09 7.80068e-10 2.73664e-09 1.41678e-09 4.71403e-10 7.73091 5.47488 0.417314 2.73663e-09 1.41677e-09 4.7142e-10 2.90554 0.965183 0.102902 2.73664e-09 1.41677e-09 4.71419e-10 10.2786 0.731801 0.0259123 2.73663e-09 1.41677e-09 4.7143e-10 2.22167 -0.733487 -0.20892 -1.292e-13 3.93484e-13 -1.10774e-13 -81.2493 7.56003 -2.78481 5.73926 -1.92679 -10.0196 0.0466408 -6.15024 0.86773 1.7805e-09 -1.15665e-09 -1.99806e-10 3.07892e-09 -2.00313e-09 -3.41183e-10 1.7805e-09 -1.15665e-09 -1.99798e-10 -7.73091 5.47488 -0.417314 1.7805e-09 -1.15665e-09 -1.99804e-10 -2.90554 0.965183 -0.102902 1.7805e-09 -1.15665e-09 -1.99808e-10 -10.2786 0.731801 -0.0259123 1.7805e-09 -1.15664e-09 -1.99816e-10 -2.22167 -0.733487 0.20892 -2.03217e-16 0.0 -3.88251e-19 -0.668051 -17.0059 11.4697 -0.155591 22.3336 0.337506 0.21774 9.29536 -8.89378 2.03217e-16 0.0 3.88251e-19 -1.60382 -8.58031 5.93983 0.186927 37.6395 -0.914712 0.509504 -4.95857 -0.864384
-40.2013 84.5704 70.8579 -5.3524 61.6317 -13.1655 -1.78093 11.3681 -4.05135 -1.45163 -2.61587 -1.28567 0.618943 15.5225 -1.73386 3.05899 -23.4267 -2.70076 -0.0 0.0 0.0 -0.0 0.0 0.0 -1.53033e-13 4.83056e-13 -2.51164e-13 84.0093 19.6449 1.55674 -9.05636 -3.58736 16.0435 -0.246201 13.9893 2.0065 4.00416e-09 2.20655e-09 2.64171e-10 6.92056e-09 3.8715e-09 4.06037e-10 4.00416e-09 2.20656e-09 2.64158e-10 7.73091 5.47488 0.417314 4.00416e-09 2.20655e-09 2.64174e-10 2.90554 0.965183 0.102902 4.00416e-09 2.20655e-09 2.64174e-10 10.2786 0.731801 0.0259123 4.00416e-09 2.20655e-09 2.64183e-10 2.22167 -0.733487 -0.20892 -1.53105e-13 4.83037e-13 -2.51314e-13 -81.3238 7.5604 -2.70198 5.7407 -1.92712 -10.0222 0.0471634 -6.18597 0.872808 2.44132e-09 -1.76724e-09 9.1231e-11 4.22085e-09 -3.06015e-09 1.62868e-10 2.44133e-09 -1.76724e-09 9.12374e-11 -7.73091 5.47488 -0.417314 2.44132e-09 -1.76724e-09 9.12342e-11 -2.90554 0.965183 -0.102902 2.44132e-09 -1.76724e-09 9.12302e-11 -10.2786 0.731801 -0.0259123 2.44133e-09 -1.76723e-09 9.12215e-11 -2.22167 -0.733487 0.20892 -2.03217e-16 0.0 -3.88251e-19 -0.379496 -16.695 11.4162 -0.155618 22.3676 0.339488 0.127447 8.85817 -8.59939 2.03217e-16 0.0 3.88251e-19 -1.45412 -9.02276 5.94213 0.190466 37.7436 -0.90564 0.550088 -5.21157 -0.503271
-39.6873 84.522 71.45 -5.8725 61.8308 -13.5655 -1.50914 11.3302 -4.10256 -1.46805 -2.60672 -1.29409 0.596416 15.5258 -1.77152 3.05417 -23.4346 -2.77525 -0.0 0.0 0.0 -0.0 0.0 0.0 -1.23106e-13 2.95273e-13 -3.73721e-13 83.9366 19.8613 1.6706 -9.12918 -3.62875 16.1783 -0.237896 13.7567 1.9718 3.64211e-09 2.49645e-09 4.38077e-10 6.29614e-09 4.36786e-09 7.10775e-10 3.64211e-09 2.49646e-09 4.38063e-10 7.73091 5.47488 0.417314 3.64211e-09 2.49645e-09 4.38079e-10 2.90554 0.965183 0.102902 3.64211e-09 2.49645e-09 4.38081e-10 10.2786 0.731801 0.0259123 3.64211e-09 2.49645e-09 4.3809e-10 2.22167 -0.733487 -0.20892 -1.23186e-13 2.95254e-13 -3.73893e-13 -81.3959 7.52187 -2.6148 5.73625 -1.92547 -10.0143 0.0472795 -6.19156 0.873607 2.20848e-09 -1.94284e-09 -6.10135e-10 3.82109e-09 -3.36405e-09 -1.04975e-09 2.20848e-09 -1.94284e-09 -6.1013e-10 -7.73091 5.47488 -0.417314 2.20848e-09 -1.94284e-09 -6.10133e-10 -2.90554 0.965183 -0.102902 2.20848e-09 -1.94284e-09 -6.10135e-10 -10.2786 0.731801 -0.0259123 2.20848e-09 -1.94284e-09 -6.10143e-10 -2.22167 -0.733487 0.20892 -2.03217e-16 0.0 -3.88251e-19 -0.0898212 -16.4077 11.315 -0.156117 22.4688 0.343221 0.0321264 8.37163 -8.27925 2.03217e-16 0.0 3.88251e-19 -1.32202 -9.44428 5.97829 0.192096 37.7639 -0.894644 0.591804 -5.47199 -0.163833
-39.1876 84.4694 72.0278 -6.3728 61.9958 -13.9378 -1.25506 11.2863 -4.1423 -1.48892 -2.59741 -1.30008 0.578488 15.5263 -1.80405 3.04748 -23.4443 -2.84019 -0.0 0.0 0.0 -0.0 0.0 0.0 -5.70945e-14 -8.01016e-14 -5.15964e-13 83.8634 20.0713 1.78895 -9.20267 -3.67072 16.3145 -0.230002 13.5324 1.93839 2.36464e-09 2.65707e-09 8.18969e-10 4.09211e-09 4.62885e-09 1.38439e-09 2.36464e-09 2.65707e-09 8.18953e-10 7.73091 5.47488 0.417314 2.36463e-09 2.65707e-09 8.1897e-10 2.90554 0.965183 0.102902 2.36464e-09 2.65707e-09 8.18974e-10 10.2786 0.731801 0.0259123 2.36463e-09 2.65707e-09 8.18983e-10 2.22167 -0.733487 -0.20892 -5.71824e-14 -8.0119e-14 -5.16172e-13 -81.4662 7.44205 -2.52223 5.72549 -1.92145 -9.99521 0.04689 -6.16395 0.869685 1.45086e-09 -1.94022e-09 -1.98739e-09 2.51644e-09 -3.35933e-09 -3.4315e-09 1.45086e-09 -1.94021e-09 -1.98738e-09 -7.73091 5.47488 -0.417314 1.45086e-09 -1.94021e-09 -1.98739e-09 -2.90554 0.965183 -0.102902 1.45085e-09 -1.94022e-09 -1.98738e-09 -10.2786 0.731801 -0.0259123 1.45086e-09 -1.94021e-09 -1.98739e-09 -2.22167 -0.733487 0.20892 -2.03217e-16 0.0 -3.88251e-19 0.205438 -16.1483 11.1694 -0.157166 22.6562 0.349213 -0.0672646 7.83462 -7.92909 2.03217e-16 0.0 3.88251e-19 -1.20826 -9.8473 6.04439 0.191743 37.6969 -0.881833 0.63553 -5.73734 0.158823
-38.7013 84.4127 72.5898 -6.8469 62.1258 -14.2753 -1.02013 11.2323 -4.17338 -1.51221 -2.58698 -1.30449 0.5642 15.5246 -1.83041 3.03946 -23.4551 -2.89341 -0.0 0.0 0.0 -0.0 0.0 0.0 2.00839e-14 -4.90959e-13 -6.57018e-13 83.7916 20.2735 1.90769 -9.27566 -3.71262 16.4499 -0.222552 13.3169 1.90637 9.47218e-10 2.90029e-09 1.09301e-09 1.64523e-09 5.03083e-09 1.87518e-09 9.47222e-10 2.9003e-09 1.093e-09 7.73091 5.47488 0.417314 9.47217e-10 2.90029e-09 1.09302e-09 2.90554 0.965183 0.102902 9.47227e-10 2.90029e-09 1.09302e-09 10.2786 0.731801 0.0259123 9.47215e-10 2.90029e-09 1.09303e-09 2.22167 -0.733487 -0.20892 1.99924e-14 -4.90975e-13 -6.57257e-13 -81.5349 7.32212 -2.4262 5.7085 -1.91482 -9.96505 0.0459118 -6.09965 0.860542 5.40358e-10 -1.92577e-09 -3.34596e-09 9.47531e-10 -3.33408e-09 -5.78138e-09 5.40356e-10 -1.92577e-09 -3.34596e-09 -7.73091 5.47488 -0.417314 5.40362e-10 -1.92577e-09 -3.34597e-09 -2.90554 0.965183 -0.102902 5.4035e-10 -1.92578e-09 -3.34596e-09 -10.2786 0.731801 -0.0259123 5.4036e-10 -1.92578e-09 -3.34597e-09 -2.22167 -0.733487 0.20892 -2.03217e-16 0.0 -3.88251e-19 0.499235 -15.9089 11.0104 -0.158538 22.8821 0.356178 -0.165188 7.2633 -7.57068 2.03217e-16 0.0 3.88251e-19 -1.11047 -10.2258 6.13799 0.189526 37.5518 -0.867239 0.679493 -6.00049 0.457252
-38.2297 84.3528 73.1358 -7.2918 62.2222 -14.5735 -0.8058 11.1639 -4.19863 -1.53589 -2.57451 -1.30817 0.552596 15.5212 -1.84957 3.03061 -23.4662 -2.93277 -0.0 0.0 0.0 -0.0 0.0 0.0 8.35102e-14 -7.85193e-13 -7.76006e-13 83.7231 20.4661 2.02269 -9.34701 -3.7538 16.5824 -0.215579 13.1109 1.8758 1.65332e-10 3.43801e-09 9.46384e-10 2.92262e-10 5.95014e-09 1.63146e-09 1.65335e-10 3.43801e-09 9.46365e-10 7.73091 5.47488 0.417314 1.6533e-10 3.43801e-09 9.46384e-10 2.90554 0.965183 0.102902 1.65341e-10 3.43801e-09 9.46388e-10 10.2786 0.731801 0.0259123 1.65327e-10 3.43801e-09 9.46396e-10 2.22167 -0.733487 -0.20892 8.34248e-14 -7.85206e-13 -7.76254e-13 -81.6023 7.16321 -2.32861 5.68537 -1.9053 -9.92386 0.0442854 -5.99516 0.845684 -1.51109e-10 -2.06593e-09 -3.9913e-09 -2.44973e-10 -3.57642e-09 -6.89839e-09 -1.51113e-10 -2.06594e-09 -3.9913e-09 -7.73091 5.47488 -0.417314 -1.51105e-10 -2.06594e-09 -3.99131e-09 -2.90554 0.965183 -0.102902 -1.51118e-10 -2.06594e-09 -3.9913e-09 -10.2786 0.731801 -0.0259123 -1.51107e-10 -2.06594e-09 -3.9913e-09 -2.22167 -0.733487 0.20892 -2.03217e-16 0.0 -3.88251e-19 0.783998 -15.6814 10.8689 -0.159967 23.0985 0.362811 -0.257323 6.67405 -7.22551 2.03217e-16 0.0 3.88251e-19 -1.02646 -10.5737 6.25662 0.185572 37.3376 -0.8509 0.721634 -6.25433 0.723977
-37.7716 84.2902 73.6654 -7.7033 62.2867 -14.8276 -0.611251 11.0819 -4.21708 -1.56022 -2.56045 -1.31093 0.543599 15.5154 -1.86103 3.0206 -23.4761 -2.95739 -0.0 0.0 0.0 -0.0 0.0 0.0 1.31198e-13 -9.1512e-13 -8.65276e-13 83.657 20.6486 2.13518 -9.41689 -3.79439 16.7123 -0.209029 12.9141 1.84665 3.21969e-10 4.45524e-09 5.60237e-11 5.53449e-10 7.71033e-09 9.1392e-11 3.21973e-10 4.45524e-09 5.60042e-11 7.73091 5.47488 0.417314 3.21968e-10 4.45524e-09 5.60221e-11 2.90554 0.965183 0.102902 3.21978e-10 4.45524e-09 5.60253e-11 10.2786 0.731801 0.0259123 3.21964e-10 4.45524e-09 5.60318e-11 2.22167 -0.733487 -0.20892 1.31137e-13 -9.15131e-13 -8.65498e-13 -81.6685 6.9637 -2.22871 5.6556 -1.89256 -9.87077 0.0421458 -5.84987 0.82504 -5.84206e-10 -2.424e-09 -3.44484e-09 -9.94393e-10 -4.19587e-09 -5.95546e-09 -5.84211e-10 -2.42401e-09 -3.44484e-09 -7.73091 5.47488 -0.417314 -5.84203e-10 -2.42401e-09 -3.44484e-09 -2.90554 0.965183 -0.102902 -5.84214e-10 -2.42401e-09 -3.44484e-09 -10.2786 0.731801 -0.0259123 -5.84201e-10 -2.42401e-09 -3.44484e-09 -2.22167 -0.733487 0.20892 -2.03217e-16 0.0 -3.88251e-19 1.05946 -15.4588 10.7441 -0.161404 23.2976 0.368939 -0.344424 6.06192 -6.89109 2.03217e-16 0.0 3.88251e-19 -0.956541 -10.8916 6.40367 0.180038 37.0497 -0.832677 0.76135 -6.50121 0.958772
